# xmcd
#
# Track frame offsets:
#	150
#	19120
#	31681
#	47509
#	62082
#	77565
#	89724
#	102392
#	113188
#	128037
#
# Disc length: 1882 seconds
#
# Revision: 0
# Processed by: cddbd v1.5.1PL2 Copyright (c) Steve Scherf et al.
# Submitted via: dBpowerAMP V4.0
#
DISCID=7807580a
DTITLE=Various Artist - Best Collection B.B. King
DYEAR=1900
DGENRE=
TTITLE0=Sweet Sixteen - B.B. King-J. Josea
TTITLE1=Mistreated Woman - B.B. King
TTITLE2=Outside Help - B.B. King
TTITLE3=Past Day - B.B. King-J. Josea
TTITLE4=The Letter - B.B. King-J. Josea
TTITLE5=Please Hurry Home - J. Taub-B.B. King
TTITLE6=Please Love Me - J. Taub-B.B. King
TTITLE7=Recession Blues - B.B. King-J. Josea
TTITLE8=Precious Lord - B.B. King
TTITLE9=Servant's Prayer - B.B. King
EXTD=
EXTT0=
EXTT1=
EXTT2=
EXTT3=
EXTT4=
EXTT5=
EXTT6=
EXTT7=
EXTT8=
EXTT9=
PLAYORDER=
